<svg xmlns="http://www.w3.org/2000/svg" viewBox="0 0 512 512" width="512" height="512">
  <!-- Background -->
  <rect width="512" height="512" fill="#0a0a0a" rx="80"/>
  
  <!-- Matrix-style background pattern -->
  <defs>
    <pattern id="matrix" x="0" y="0" width="40" height="40" patternUnits="userSpaceOnUse">
      <rect width="40" height="40" fill="#0a0a0a"/>
      <text x="20" y="25" text-anchor="middle" fill="#003300" font-family="monospace" font-size="12" opacity="0.3">01</text>
    </pattern>
  </defs>
  <rect width="512" height="512" fill="url(#matrix)" rx="80"/>
  
  <!-- Main circle background -->
  <circle cx="256" cy="256" r="200" fill="#001100" stroke="#00ff00" stroke-width="4"/>
  
  <!-- Numbers display -->
  <rect x="156" y="180" width="200" height="80" fill="#1a1a1a" stroke="#00cc00" stroke-width="2" rx="8"/>
  
  <!-- Sample numbers -->
  <text x="256" y="230" text-anchor="middle" fill="#00ff00" font-family="monospace" font-size="36" font-weight="bold">1234</text>
  
  <!-- Question marks for mystery -->
  <text x="180" y="320" fill="#00ff33" font-family="monospace" font-size="24" opacity="0.8">?</text>
  <text x="220" y="340" fill="#00ff33" font-family="monospace" font-size="20" opacity="0.6">?</text>
  <text x="300" y="320" fill="#00ff33" font-family="monospace" font-size="24" opacity="0.8">?</text>
  <text x="340" y="340" fill="#00ff33" font-family="monospace" font-size="20" opacity="0.6">?</text>
  
  <!-- Title text -->
  <text x="256" y="140" text-anchor="middle" fill="#00ff00" font-family="monospace" font-size="18" font-weight="bold">SAYI OYUNU</text>
  
  <!-- Decorative elements -->
  <rect x="100" y="100" width="4" height="40" fill="#00cc00" opacity="0.6"/>
  <rect x="408" y="100" width="4" height="40" fill="#00cc00" opacity="0.6"/>
  <rect x="100" y="372" width="4" height="40" fill="#00cc00" opacity="0.6"/>
  <rect x="408" y="372" width="4" height="40" fill="#00cc00" opacity="0.6"/>
  
  <!-- Corner brackets -->
  <path d="M 120 120 L 120 100 L 140 100" stroke="#00ff00" stroke-width="3" fill="none"/>
  <path d="M 392 120 L 392 100 L 372 100" stroke="#00ff00" stroke-width="3" fill="none"/>
  <path d="M 120 392 L 120 412 L 140 412" stroke="#00ff00" stroke-width="3" fill="none"/>
  <path d="M 392 392 L 392 412 L 372 412" stroke="#00ff00" stroke-width="3" fill="none"/>
</svg>
